<svg id="Layer_1" data-name="Layer 1" xmlns="http://www.w3.org/2000/svg" viewBox="0 0 1000 1000"><defs><style>.cls-1{fill:#f59d2e;}.cls-2{fill:#ef9527;}.cls-3{fill:#ffbb2e;}.cls-4{fill:#424242;}</style></defs><title>ide-horizontal</title><path class="cls-1" d="M312.7931,412.99H211.5706a36.44,36.44,0,0,0-36.3985,36.3985V550.6112A36.44,36.44,0,0,0,211.5706,587.01h88.05l-24.2657-24.2656h-63.784a12.1467,12.1467,0,0,1-12.1328-12.1329V449.3888a12.1467,12.1467,0,0,1,12.1328-12.1329H312.7931a12.1467,12.1467,0,0,1,12.1328,12.1329v96.1967l-58.4116-58.4116h32.7594V462.9082H225.09v74.1836h24.2657V504.3324l58.4119,58.4117h0l7.8322,7.8324s25.0932.8762,30.0441-7.1a28.2383,28.2383,0,0,0,3.5477-12.8651V449.3888A36.44,36.44,0,0,0,312.7931,412.99Z"/><path class="cls-2" d="M324.9259,545.5855l-3.2143-3.2144-.92,5.0589,19.84,19.84a10.7046,10.7046,0,0,0,5.0122-3.794,28.2383,28.2383,0,0,0,3.5477-12.8651v-1.6448l-24.2657-24.2657Z"/><polygon class="cls-2" points="324.926 516.209 324.926 523.592 349.192 547.857 349.192 540.475 324.926 516.209 324.926 516.209"/><polygon class="cls-2" points="324.926 507.896 324.926 514.458 349.192 538.724 349.192 532.161 324.926 507.895 324.926 507.896"/><polygon class="cls-2" points="324.926 499.582 324.926 505.324 349.192 529.59 349.192 523.848 324.926 499.582 324.926 499.582"/><polygon class="cls-2" points="324.926 491.269 324.926 496.191 349.192 520.456 349.192 515.534 324.926 491.269 324.926 491.269"/><polygon class="cls-2" points="324.926 482.955 324.926 487.057 349.192 511.323 349.192 507.221 324.926 482.955 324.926 482.955"/><polygon class="cls-2" points="324.926 474.642 324.926 477.923 349.192 502.189 349.192 498.908 324.926 474.642 324.926 474.642"/><polygon class="cls-2" points="324.926 466.329 324.926 468.789 349.192 493.055 349.192 490.594 324.926 466.329 324.926 466.329"/><polygon class="cls-2" points="324.926 458.015 324.926 459.656 349.192 483.922 349.192 482.281 324.926 458.015 324.926 458.015"/><polygon class="cls-2" points="324.926 449.702 324.926 449.702 324.926 450.522 349.192 474.788 349.192 473.968 324.926 449.702"/><path class="cls-3" d="M336.6621,557.3216h0l-11.7362-11.7361-58.4115-58.4116h32.7592V462.9082H225.09v74.1836h24.2656V504.3324l58.4119,58.4117h0l8.5614,8.5615,2.0983,2.0984a10.0276,10.0276,0,0,0,12.0992,1.5967l10.3965-5.99c8.2786-4.7951,8.2686-15.2406,8.2686-18.399C348.1093,561.1292,344.1043,564.5246,336.6621,557.3216Z"/><path class="cls-4" d="M384.0478,536.5663a2.4317,2.4317,0,0,1-.6934-1.8029V442.6885a2.3781,2.3781,0,0,1,2.4964-2.4955h18.0265a2.378,2.378,0,0,1,2.4955,2.4955v92.0749a2.3781,2.3781,0,0,1-2.4955,2.4964H385.8508A2.4314,2.4314,0,0,1,384.0478,536.5663Z"/><path class="cls-4" d="M417.4247,536.5663a2.4308,2.4308,0,0,1-.6927-1.8029V442.6885a2.377,2.377,0,0,1,2.4956-2.4955h34.5277a46.1862,46.1862,0,0,1,19.136,3.7442,29.5265,29.5265,0,0,1,12.8962,10.6765,28.2936,28.2936,0,0,1,4.5761,15.9469v36.3307a28.2818,28.2818,0,0,1-4.5761,15.9469,29.5169,29.5169,0,0,1-12.8962,10.6774,46.2006,46.2006,0,0,1-19.136,3.7442H419.2276A2.431,2.431,0,0,1,417.4247,536.5663Zm23.296-18.9976h14.0057a11.4277,11.4277,0,0,0,9.0128-3.9517q3.4657-3.9522,3.6059-10.6083V474.4432q0-6.6553-3.5367-10.6074a11.79,11.79,0,0,0-9.22-3.9526H440.7207a.8582.8582,0,0,0-.97.9711v55.7442A.8569.8569,0,0,0,440.7207,517.5687Z"/><path class="cls-4" d="M567.3363,459.19a2.4325,2.4325,0,0,1-1.802.6935H523.1022a.8584.8584,0,0,0-.971.9711v16.5012a.8577.8577,0,0,0,.971.9711h26.7627a2.3769,2.3769,0,0,1,2.4956,2.4955v14.56a2.3782,2.3782,0,0,1-2.4956,2.4964H523.1022a.8581.8581,0,0,0-.971.97v17.75a.8571.8571,0,0,0,.971.97h42.4321a2.3782,2.3782,0,0,1,2.4955,2.4964v14.6983a2.3782,2.3782,0,0,1-2.4955,2.4964H501.6082a2.3782,2.3782,0,0,1-2.4955-2.4964V442.6885a2.3782,2.3782,0,0,1,2.4955-2.4955h63.9261a2.3782,2.3782,0,0,1,2.4955,2.4955v14.6992A2.4345,2.4345,0,0,1,567.3363,459.19Z"/><path class="cls-3" d="M560.4844,557.21a6.2093,6.2093,0,0,1-1.9015-4.6374,5.8119,5.8119,0,0,1,2.04-4.4515,6.7069,6.7069,0,0,1,4.6375-1.8548,6.8786,6.8786,0,0,1,4.6841,1.8548,5.76,5.76,0,0,1,2.0865,4.4515,6.1757,6.1757,0,0,1-1.9482,4.5907,6.6323,6.6323,0,0,1-4.8224,1.9015A6.5555,6.5555,0,0,1,560.4844,557.21Z"/><path class="cls-1" d="M588.5294,557.9522a15.2873,15.2873,0,0,1-6.538-4.5907,10.1282,10.1282,0,0,1-2.3192-6.4464v-.556a1.2858,1.2858,0,0,1,1.3913-1.3913h5.75a2.3169,2.3169,0,0,1,1.02.1859c.2464.1245.371.2776.371.4635v.7419q0,2.598,2.8284,4.544a12.2193,12.2193,0,0,0,7.0949,1.9482,11.7891,11.7891,0,0,0,6.8632-1.8081,5.4149,5.4149,0,0,0,2.5967-4.5916,4.3488,4.3488,0,0,0-2.4108-4.0338,38.0155,38.0155,0,0,0-7.791-2.8285,72.7781,72.7781,0,0,1-8.8572-3.0144,16.4242,16.4242,0,0,1-6.0279-4.36,10.6913,10.6913,0,0,1-2.4574-7.28,11.7239,11.7239,0,0,1,4.8683-9.8775q4.8691-3.6617,12.9377-3.6629a24.6149,24.6149,0,0,1,9.5066,1.7156,14.5039,14.5039,0,0,1,6.353,4.7766,11.389,11.389,0,0,1,2.2257,6.8623,1.1142,1.1142,0,0,1-.3709.882,1.4943,1.4943,0,0,1-1.02.3243H608.98a2.2974,2.2974,0,0,1-1.02-.1859q-.3709-.1842-.371-.4635v-.5569a5.3211,5.3211,0,0,0-2.6434-4.4973,14.9733,14.9733,0,0,0-13.8189-.2326,4.8183,4.8183,0,0,0-2.55,4.2664,4.434,4.434,0,0,0,2.4575,4.0814,39.5082,39.5082,0,0,0,7.9294,2.9677,85.2051,85.2051,0,0,1,8.9506,2.921,15.9874,15.9874,0,0,1,6.0745,4.2665,10.7167,10.7167,0,0,1,2.5042,7.3733,11.8565,11.8565,0,0,1-4.9617,10.0159q-4.9624,3.7108-13.31,3.71A26.2021,26.2021,0,0,1,588.5294,557.9522Z"/><path class="cls-1" d="M631.3212,556.2366a17.92,17.92,0,0,1-6.8632-9.6916,37.107,37.107,0,0,1-1.3913-11.2222,40.6339,40.6339,0,0,1,1.3913-11.2221,17.625,17.625,0,0,1,6.909-9.46,20.4751,20.4751,0,0,1,12.0108-3.5246,21.1213,21.1213,0,0,1,12.1491,3.5246,16.1289,16.1289,0,0,1,6.7707,8.903,11.5338,11.5338,0,0,1,.6494,2.5976v.185a1.2257,1.2257,0,0,1-1.2063,1.2988l-6.0279.8345h-.2784a1.2378,1.2378,0,0,1-1.2988-1.02l-.2776-1.2054a9.0821,9.0821,0,0,0-3.617-5.2859,11.3464,11.3464,0,0,0-6.9557-2.1341,10.7946,10.7946,0,0,0-6.7707,2.1341,9.7325,9.7325,0,0,0-3.6171,5.6569,37.5529,37.5529,0,0,0-.8344,8.81,37.0469,37.0469,0,0,0,.8344,8.7179,10.3128,10.3128,0,0,0,3.6638,5.8429,10.5911,10.5911,0,0,0,6.724,2.1332,11.3743,11.3743,0,0,0,6.8623-2.0865,9.3221,9.3221,0,0,0,3.71-5.3335l.0926-.37v-.0934a1.6268,1.6268,0,0,1,.556-.88,1.1812,1.1812,0,0,1,1.02-.3251l6.0288,1.02a1.3065,1.3065,0,0,1,1.2054,1.4839q-.0935.3709-.4635,1.7622a15.706,15.706,0,0,1-6.7707,9.0881,21.52,21.52,0,0,1-12.1491,3.432A20.22,20.22,0,0,1,631.3212,556.2366Z"/><path class="cls-1" d="M703.9842,515.6144q4.4516,4.4063,4.4515,11.9174v30.142a1.2835,1.2835,0,0,1-1.3913,1.3913h-6.1212a1.2835,1.2835,0,0,1-1.39-1.3913v-28.38a10.56,10.56,0,0,0-2.69-7.5126,9.3217,9.3217,0,0,0-7.1407-2.8743,9.9235,9.9235,0,0,0-6.724,2.3642,9.5063,9.5063,0,0,0-3.2,6.3538v30.0486a1.2835,1.2835,0,0,1-1.3913,1.3913h-6.12a1.2836,1.2836,0,0,1-1.3913-1.3913V495.536a1.2847,1.2847,0,0,1,1.3913-1.3922h6.12a1.2846,1.2846,0,0,1,1.3913,1.3922v20.31a.3733.3733,0,0,0,.1859.3718.1833.1833,0,0,0,.2785-.0934q3.8951-4.9146,11.6856-4.915Q699.531,511.21,703.9842,515.6144Z"/><path class="cls-1" d="M725.8068,556.3292a18.3076,18.3076,0,0,1-7.0949-9.6917,35.68,35.68,0,0,1-1.67-11.3147,34.213,34.213,0,0,1,1.5763-11.13,18.2442,18.2442,0,0,1,7.1416-9.5991,21.0427,21.0427,0,0,1,12.1492-3.4779,19.7657,19.7657,0,0,1,11.64,3.4779,19.0411,19.0411,0,0,1,7.0949,9.5066,33.4616,33.4616,0,0,1,1.6689,11.1288,35.4687,35.4687,0,0,1-1.6689,11.408,18.4032,18.4032,0,0,1-7.0491,9.6917,20.1328,20.1328,0,0,1-11.7781,3.4778A20.6618,20.6618,0,0,1,725.8068,556.3292Zm18.5022-6.3063a11.4227,11.4227,0,0,0,3.988-5.89,31.8265,31.8265,0,0,0,1.02-8.7179,33.7636,33.7636,0,0,0-.9279-8.6255,11.4236,11.4236,0,0,0-3.988-5.8886,10.962,10.962,0,0,0-6.77-2.0874,10.6665,10.6665,0,0,0-6.5856,2.0874,11.4124,11.4124,0,0,0-3.9872,5.8886,29.5823,29.5823,0,0,0-1.02,8.6255,30.5523,30.5523,0,0,0,1.02,8.7179,10.8276,10.8276,0,0,0,3.9414,5.89,11.1652,11.1652,0,0,0,6.8165,2.0865A10.5281,10.5281,0,0,0,744.309,550.0229Z"/><path class="cls-1" d="M774.3947,556.3292a18.3076,18.3076,0,0,1-7.0949-9.6917,35.68,35.68,0,0,1-1.67-11.3147,34.213,34.213,0,0,1,1.5763-11.13,18.2437,18.2437,0,0,1,7.1416-9.5991,21.0424,21.0424,0,0,1,12.1492-3.4779,19.7659,19.7659,0,0,1,11.64,3.4779,19.0411,19.0411,0,0,1,7.0949,9.5066,33.4616,33.4616,0,0,1,1.6689,11.1288,35.4687,35.4687,0,0,1-1.6689,11.408,18.4032,18.4032,0,0,1-7.0491,9.6917,20.1331,20.1331,0,0,1-11.7782,3.4778A20.6617,20.6617,0,0,1,774.3947,556.3292Zm18.5022-6.3063a11.4227,11.4227,0,0,0,3.988-5.89,31.8308,31.8308,0,0,0,1.02-8.7179,33.7641,33.7641,0,0,0-.9278-8.6255,11.4236,11.4236,0,0,0-3.988-5.8886,10.9622,10.9622,0,0,0-6.77-2.0874,10.6663,10.6663,0,0,0-6.5856,2.0874,11.4124,11.4124,0,0,0-3.9872,5.8886,29.5823,29.5823,0,0,0-1.02,8.6255,30.5523,30.5523,0,0,0,1.02,8.7179,10.8271,10.8271,0,0,0,3.9414,5.89,11.1651,11.1651,0,0,0,6.8164,2.0865A10.5284,10.5284,0,0,0,792.8969,550.0229Z"/><path class="cls-1" d="M816.295,558.6941a1.3755,1.3755,0,0,1-.371-1.02V495.536a1.2847,1.2847,0,0,1,1.3913-1.3922h6.1213a1.2847,1.2847,0,0,1,1.3913,1.3922v62.1378a1.2836,1.2836,0,0,1-1.3913,1.3913h-6.1213A1.3765,1.3765,0,0,1,816.295,558.6941Z"/></svg>